# xmcd CD database file
#
# Track frame offsets:
#	150
#	24767
#	41285
#
# Disc length: 877 seconds
#
# Revision: 0
# Processed by: cddbd v1.5.1PL0 Copyright (c) Steve Scherf et al.
# Submitted via: CDex 1.51
#
DISCID=12036b03
DTITLE=山部光彦 and KAPLANS - LAST DANCE
DYEAR=1997
DGENRE=Pop
TTITLE0=LAST DANCE
TTITLE1=ROUGE
TTITLE2=LAST DANCE
EXTD=YEAR: 1997
EXTT0=
EXTT1=
EXTT2=
PLAYORDER=
